<mxfile host="app.diagrams.net" modified="2023-10-06T17:00:33.420Z" agent="Mozilla/5.0 (Macintosh; Intel Mac OS X 10_15_7) AppleWebKit/537.36 (KHTML, like Gecko) Chrome/95.0.4638.69 Safari/537.36" etag="_XQSynJXNZkTaC9JF7cI" version="22.0.3" type="github">
  <diagram name="Page-1" id="FXin6yRWF1PlFvEeuxuH">
    <mxGraphModel dx="954" dy="547" grid="1" gridSize="10" guides="1" tooltips="1" connect="1" arrows="1" fold="1" page="1" pageScale="1" pageWidth="850" pageHeight="1100" math="0" shadow="0">
      <root>
        <mxCell id="0" />
        <mxCell id="1" parent="0" />
        <mxCell id="UItnQCXi7roDaaUSvv6w-3" value="" style="edgeStyle=orthogonalEdgeStyle;rounded=0;orthogonalLoop=1;jettySize=auto;html=1;" edge="1" parent="1" source="UItnQCXi7roDaaUSvv6w-1" target="UItnQCXi7roDaaUSvv6w-2">
          <mxGeometry relative="1" as="geometry" />
        </mxCell>
        <mxCell id="UItnQCXi7roDaaUSvv6w-7" value="" style="edgeStyle=orthogonalEdgeStyle;rounded=0;orthogonalLoop=1;jettySize=auto;html=1;" edge="1" parent="1" source="UItnQCXi7roDaaUSvv6w-1" target="UItnQCXi7roDaaUSvv6w-6">
          <mxGeometry relative="1" as="geometry" />
        </mxCell>
        <mxCell id="UItnQCXi7roDaaUSvv6w-8" style="edgeStyle=orthogonalEdgeStyle;rounded=0;orthogonalLoop=1;jettySize=auto;html=1;" edge="1" parent="1" source="UItnQCXi7roDaaUSvv6w-1" target="UItnQCXi7roDaaUSvv6w-6">
          <mxGeometry relative="1" as="geometry" />
        </mxCell>
        <mxCell id="UItnQCXi7roDaaUSvv6w-1" value="Frontend" style="shape=ext;double=1;whiteSpace=wrap;html=1;aspect=fixed;" vertex="1" parent="1">
          <mxGeometry x="100" y="360" width="160" height="160" as="geometry" />
        </mxCell>
        <mxCell id="UItnQCXi7roDaaUSvv6w-5" value="" style="edgeStyle=orthogonalEdgeStyle;rounded=0;orthogonalLoop=1;jettySize=auto;html=1;" edge="1" parent="1" source="UItnQCXi7roDaaUSvv6w-2" target="UItnQCXi7roDaaUSvv6w-4">
          <mxGeometry relative="1" as="geometry" />
        </mxCell>
        <mxCell id="UItnQCXi7roDaaUSvv6w-2" value="Backend" style="shape=ext;double=1;whiteSpace=wrap;html=1;aspect=fixed;" vertex="1" parent="1">
          <mxGeometry x="330" y="360" width="160" height="160" as="geometry" />
        </mxCell>
        <mxCell id="UItnQCXi7roDaaUSvv6w-11" value="" style="edgeStyle=orthogonalEdgeStyle;rounded=0;orthogonalLoop=1;jettySize=auto;html=1;entryX=0.917;entryY=0.8;entryDx=0;entryDy=0;entryPerimeter=0;" edge="1" parent="1" source="UItnQCXi7roDaaUSvv6w-4" target="UItnQCXi7roDaaUSvv6w-6">
          <mxGeometry relative="1" as="geometry">
            <mxPoint x="640" y="270" as="targetPoint" />
            <Array as="points">
              <mxPoint x="450" y="440" />
            </Array>
          </mxGeometry>
        </mxCell>
        <mxCell id="UItnQCXi7roDaaUSvv6w-4" value="Database" style="shape=ext;double=1;whiteSpace=wrap;html=1;aspect=fixed;" vertex="1" parent="1">
          <mxGeometry x="580" y="360" width="160" height="160" as="geometry" />
        </mxCell>
        <mxCell id="UItnQCXi7roDaaUSvv6w-6" value="Cloud" style="ellipse;shape=cloud;whiteSpace=wrap;html=1;" vertex="1" parent="1">
          <mxGeometry x="320" y="120" width="140" height="110" as="geometry" />
        </mxCell>
        <mxCell id="UItnQCXi7roDaaUSvv6w-12" style="edgeStyle=orthogonalEdgeStyle;rounded=0;orthogonalLoop=1;jettySize=auto;html=1;entryX=0.16;entryY=0.55;entryDx=0;entryDy=0;entryPerimeter=0;" edge="1" parent="1">
          <mxGeometry relative="1" as="geometry">
            <mxPoint x="260" y="466" as="sourcePoint" />
            <mxPoint x="359.20000000000005" y="220" as="targetPoint" />
          </mxGeometry>
        </mxCell>
        <mxCell id="UItnQCXi7roDaaUSvv6w-15" value="" style="edgeStyle=orthogonalEdgeStyle;rounded=0;orthogonalLoop=1;jettySize=auto;html=1;" edge="1" parent="1" source="UItnQCXi7roDaaUSvv6w-13" target="UItnQCXi7roDaaUSvv6w-14">
          <mxGeometry relative="1" as="geometry" />
        </mxCell>
        <mxCell id="UItnQCXi7roDaaUSvv6w-13" value="Apache Hadoop" style="whiteSpace=wrap;html=1;aspect=fixed;" vertex="1" parent="1">
          <mxGeometry x="160" y="680" width="200" height="200" as="geometry" />
        </mxCell>
        <mxCell id="UItnQCXi7roDaaUSvv6w-14" value="Cloud" style="ellipse;shape=cloud;whiteSpace=wrap;html=1;" vertex="1" parent="1">
          <mxGeometry x="480" y="690" width="170" height="130" as="geometry" />
        </mxCell>
        <mxCell id="UItnQCXi7roDaaUSvv6w-16" value="Real-time transfer" style="rounded=1;whiteSpace=wrap;html=1;" vertex="1" parent="1">
          <mxGeometry x="200" y="240" width="130" height="70" as="geometry" />
        </mxCell>
        <mxCell id="UItnQCXi7roDaaUSvv6w-17" value="Real-time transfer" style="rounded=1;whiteSpace=wrap;html=1;" vertex="1" parent="1">
          <mxGeometry x="400" y="610" width="130" height="70" as="geometry" />
        </mxCell>
        <mxCell id="UItnQCXi7roDaaUSvv6w-20" value="Both the three-tier application and the data analytics solution, cloud is provided to receive data in real-time. Thereby, it reduce the amount of data loss due to an outage. Cloud native approach is taken for scalibility and resiliency of data.&amp;nbsp;" style="rounded=0;whiteSpace=wrap;html=1;" vertex="1" parent="1">
          <mxGeometry x="160" y="960" width="530" height="110" as="geometry" />
        </mxCell>
      </root>
    </mxGraphModel>
  </diagram>
</mxfile>
